<svg width="38" height="38" fill="none" xmlns="http://www.w3.org/2000/svg"><rect width="38" height="38" rx="19" fill="#586F1F"/><path d="M12.7 10.9a.9.9 0 1 0 0 1.8h1.098l.274 1.1.01.037 1.222 4.887-.804.803c-1.134 1.134-.332 3.072 1.272 3.072H23.5a.9.9 0 1 0 0-1.8h-7.727l.9-.9h5.927a.9.9 0 0 0 .805-.497l2.7-5.4a.895.895 0 0 0-.04-.876.898.898 0 0 0-.765-.427h-9.648l-.279-1.118a.9.9 0 0 0-.873-.682h-1.8v.001Zm11.7 13.95a1.349 1.349 0 1 1-2.698.056 1.349 1.349 0 0 1 2.698-.056Zm-8.55 1.35a1.35 1.35 0 1 0 0-2.7 1.35 1.35 0 0 0 0 2.7Z" fill="#E8E8E2"/></svg>