<svg width="19" height="18" fill="none" xmlns="http://www.w3.org/2000/svg"><path d="M3.08.89a.9.9 0 0 0 0 1.8h1.098l.274 1.1.01.037 1.222 4.887-.804.803c-1.134 1.134-.331 3.072 1.272 3.072h7.727a.9.9 0 1 0 0-1.8H6.152l.9-.9h5.927a.901.901 0 0 0 .805-.497l2.7-5.4a.894.894 0 0 0-.04-.876.898.898 0 0 0-.765-.427H6.031l-.279-1.118A.9.9 0 0 0 4.88.889h-1.8V.89Zm11.7 13.95a1.349 1.349 0 0 1-2.314.972 1.35 1.35 0 1 1 2.314-.972Zm-8.55 1.35a1.35 1.35 0 1 0 0-2.7 1.35 1.35 0 0 0 0 2.7Z" fill="#E8E8E2"/></svg>