<svg width="195" height="33" fill="none" xmlns="http://www.w3.org/2000/svg"><rect y=".98" width="32" height="32" rx="16" fill="#586F1F"/><g clip-path="url('#clip0_2_382')"><path d="M16.744 11.292a2.68 2.68 0 0 0-.909-.854c-1.005-.576-2.3-.475-3.496.194-2.219 1.244-3.672 3.581-3.672 6.348 0 3.694 2.674 6.675 6.165 7.24.386.062.777.094 1.168.094a7.312 7.312 0 0 0 6.799-4.562c.364-.898.545-1.86.534-2.828-.015-1.288-.532-2.868-1.348-4.132-.814-1.258-2.064-2.405-3.619-2.39-.758.001-1.276.418-1.622.892v-.002Zm4.436 2.764a3.166 3.166 0 0 0-.841-.022l-.774-1.3-1.146.68.595 1a4.529 4.529 0 0 0-.71.416 2.84 2.84 0 0 0-.012-.039c-.178-.54-.522-.983-.98-1.424l.002-.013c.046-.215.12-.493.23-.763.248-.611.537-.858.826-.858h.008c.86-.01 1.757.651 2.487 1.78.114.175.219.356.316.542Zm-4.107 1.998c-.22.005-.445.03-.666.078a2.508 2.508 0 0 0-.708-.764 2.147 2.147 0 0 0-2.028-.262 9.5 9.5 0 0 0-.216-.12l2.155-2.113-.933-.952-2.556 2.506c-.54-.156-1.045-.213-1.498-.15a5.804 5.804 0 0 1 2.37-2.481c.909-.51 1.691-.482 2.18-.201.466.268.854.874.757 1.958l-.03.335.251.224c.549.485.776.798.875 1.098.07.21.092.463.047.843Zm-1.873.67c-.57.476-.951 1.145-1.173 1.867l-1.983-2.176-.986.899 2.726 2.991c-.004.795.098 1.608.246 2.344A5.967 5.967 0 0 1 10 16.98c0-.693.193-1.071.42-1.236.213-.158.684-.286 1.646.07.348.128.75.326 1.211.612l.335.208.344-.194c.415-.233.732-.15.976.02.107.075.198.168.268.264Zm1.177 6.244 4.861-5.358-.988-.896-1.954 2.154.005-.676-1.334-.01-.015 2.167-1.656 1.825a9.915 9.915 0 0 1-.176-2.098c.043-1.17.51-2.132 1.202-2.512.286-.159.792-.22 1.192-.15l.594.103.163-.579c.085-.302.311-.625.665-.913.358-.29.775-.498 1.222-.611.534-.13.99-.063 1.29.144.261.18.525.548.55 1.302v.012l.002.107a5.974 5.974 0 0 1-5.623 5.988v.001Z" fill="#fff"/></g><path d="M43.016 21.55c1.123-.137 1.74-.641 1.74-1.535v-9.324c0-.893-.618-1.42-1.74-1.535V8.24h11.638c.206 0 .297.069.32.23.07.686.115 1.374.482 3.046h-.573c-.802-1.397-1.49-2.13-2.841-2.13h-1.947c-1.031 0-1.466.572-1.466 1.488v2.405c0 .917.435 1.42 1.466 1.42h.916c1.856 0 2.199-.434 2.383-1.466h.504v4.078h-.504c-.183-.962-.527-1.443-2.383-1.443h-.916c-1.031 0-1.466.504-1.466 1.42v2.727c0 .893.618 1.397 1.97 1.534v.917h-7.583v-.917.001Zm18.221 1.054c-2.818 0-5.681-1.695-5.681-5.407 0-3.688 2.864-5.269 5.613-5.269 2.84 0 5.681 1.695 5.681 5.407 0 3.688-2.84 5.27-5.613 5.27Zm-2.016-6.414c0 2.84.94 5.36 2.405 5.36.893 0 1.558-.892 1.558-3.252 0-2.818-.893-5.338-2.405-5.338-.916 0-1.558.916-1.558 3.23Zm14.333 6.414c-2.818 0-5.682-1.695-5.682-5.407 0-3.688 2.864-5.269 5.613-5.269 2.841 0 5.681 1.695 5.681 5.407 0 3.688-2.84 5.27-5.612 5.27Zm-2.016-6.414c0 2.84.939 5.36 2.405 5.36.893 0 1.558-.892 1.558-3.252 0-2.818-.894-5.338-2.406-5.338-.916 0-1.557.916-1.557 3.23Zm13.026 6.414c-2.153 0-4.376-1.764-4.376-5.155 0-3.643 2.497-5.52 4.925-5.52 2.52 0 3.184 1.97 3.184-.345V10.21c0-1.077-.595-1.26-1.443-1.192v-.893l3.734-.619c.78-.114 1.146.23 1.146.917v11.706c0 .756.298 1.26.962.985v.504c-.321.78-1.145.985-1.856.985-.78 0-1.764-.252-2.04-.939-.182-.435-.388-.664-.732-.664-.458 0-1.375 1.604-3.505 1.604h.001Zm-.688-6.346c0 2.268 1.008 4.49 2.474 4.49.894 0 1.948-.64 1.948-2.566v-1.077c0-2.978-1.398-4.146-2.543-4.146-1.169 0-1.88 1.443-1.88 3.299h.001Zm13.63 5.292c1.122-.137 1.74-.641 1.74-1.535v-9.3c0-.917-.618-1.444-1.74-1.559V8.24h7.078c4.49 0 6.712 1.077 6.712 3.39 0 1.307-.756 2.59-3.367 3.002 2.932.412 4.192 1.787 4.192 3.734 0 2.657-2.36 4.1-5.567 4.1-1.833 0-5.727-.572-9.05 0v-.915h.001Zm5.612-1.19c0 .595.367.87 1.031.87h.802c1.741 0 3.047-.664 3.047-2.887 0-2.153-1.329-3.093-3.849-3.093-.596 0-1.031.458-1.031 1.375v3.734Zm0-7.584c0 .916.435 1.375 1.466 1.375h.596c1.581 0 1.993-1.237 1.993-2.291 0-1.604-.871-2.497-2.36-2.497h-.229c-1.031 0-1.466.481-1.466 1.397v2.016Zm15.719 9.828c-2.818 0-5.681-1.695-5.681-5.407 0-3.688 2.864-5.269 5.613-5.269 2.84 0 5.681 1.695 5.681 5.407 0 3.688-2.841 5.27-5.613 5.27Zm-2.016-6.414c0 2.84.939 5.36 2.405 5.36.893 0 1.558-.892 1.558-3.252 0-2.818-.893-5.338-2.405-5.338-.916 0-1.558.916-1.558 3.23Zm12.608 6.414c-1.604 0-3.345-.664-3.345-4.26V14.7c0-1.054-.596-1.237-1.443-1.214v-.893l3.734-.619c.779-.115 1.145.23 1.145.916v4.903c0 1.604.664 2.75 1.901 2.75 1.26 0 1.901-1.146 1.901-2.75V14.7c0-1.054-.596-1.237-1.443-1.214v-.893l3.711-.619c.802-.115 1.168.23 1.168.916v7.24c0 .755.298 1.26.962.984v.504c-.321.78-1.145.985-1.924.985-1.649 0-2.108-1.03-2.222-1.535-.069-.32-.252-.48-.412-.48-.16 0-.275.137-.389.297-.641.871-1.535 1.718-3.345 1.718l.001.001Zm13.661-.023c-2.107 0-3.39-1.168-3.39-3.39v-5.018c0-.802-.183-.962-.71-.962h-1.031v-.733c1.901-.435 2.818-1.306 3.597-2.566.183-.298.343-.389.641-.389h.412c.344 0 .55.206.55.55l-.023 1.42c0 .504.252.641 1.42.641h1.489v1.214l-1.489-.091c-1.168-.07-1.42.137-1.42.962v4.856c0 1.26.137 2.108 1.26 2.108a1.96 1.96 0 0 0 1.191-.366c.298.366.412.687.115.962-.527.458-1.466.802-2.612.802Zm3.88-1.008c1.054-.069 1.443-.412 1.443-1.649v-5.246c0-1.077-.596-1.26-1.42-1.191v-.893l3.711-.62c.779-.114 1.145.23 1.145.917v7.033c0 1.237.389 1.58 1.42 1.65v.892h-6.3v-.893h.001Zm.893-12.485c0-1.1.916-1.947 1.993-1.947 1.054 0 1.947.848 1.947 1.947 0 1.1-.893 1.947-1.947 1.947-1.077 0-1.993-.848-1.993-1.947Zm12.248 16.861c1.306-.092 1.695-.435 1.695-1.58v-2.452c0-.412-.206-.55-.412-.55a.45.45 0 0 0-.321.137c-.458.458-1.443 1.1-2.887 1.1-2.36 0-4.536-1.74-4.536-5.109 0-3.665 2.543-5.567 5.177-5.567 2.291 0 3.253 1.397 4.101 1.397.802 0 1.123-1.374 1.764-1.374.412 0 .55.229.55.55v11.866c0 1.146.389 1.49 1.42 1.581v.871h-6.552v-.87h.001Zm-2.772-9.714c0 2.268.962 4.513 2.566 4.513.871 0 1.879-.64 1.901-3.207-.023-3.436-1.443-4.582-2.589-4.582-1.237 0-1.879 1.443-1.879 3.276h.001Zm13.771 6.37c-1.604 0-3.345-.665-3.345-4.262V14.7c0-1.054-.596-1.237-1.443-1.214v-.893l3.734-.619c.779-.115 1.145.23 1.145.916v4.903c0 1.604.664 2.75 1.901 2.75 1.26 0 1.901-1.146 1.901-2.75V14.7c0-1.054-.596-1.237-1.443-1.214v-.893l3.711-.619c.802-.115 1.168.23 1.168.916v7.24c0 .755.298 1.26.962.984v.504c-.32.78-1.145.985-1.924.985-1.649 0-2.108-1.03-2.222-1.535-.069-.32-.252-.48-.412-.48-.16 0-.275.137-.389.297-.641.871-1.535 1.718-3.345 1.718l.001.001Zm14.914 0c-2.864 0-5.704-1.65-5.704-5.247 0-3.757 3.069-5.43 5.91-5.43 2.428 0 4.399 1.215 4.399 3.23 0 2.063-1.993 2.177-4.009 2.338l-1.787.137c-.389.023-.596.206-.596.733 0 1.695 1.833 2.451 3.345 2.451.802 0 1.901-.229 2.726-1.168l.687.619c-.435.893-2.291 2.337-4.971 2.337Zm-1.947-6.85c0 .663.16 1.007.756.984l.824-.092c1.581-.16 1.902-.573 1.902-1.466 0-1.1-.458-2.199-1.65-2.199-1.489 0-1.832 1.672-1.832 2.772Z" fill="#000"/><defs><clipPath id="clip0_2_382"><path fill="#fff" transform="translate(8 8.98)" d="M0 0h16v16H0z"/></clipPath></defs></svg>