<svg width="28" height="29" fill="none" xmlns="http://www.w3.org/2000/svg"><rect y=".41" width="28" height="28" rx="14" fill="#E8E8E2"/><path d="M14.744 8.722a2.68 2.68 0 0 0-.909-.854c-1.005-.576-2.3-.475-3.496.194-2.219 1.244-3.672 3.581-3.672 6.348 0 3.694 2.673 6.675 6.165 7.24a7.34 7.34 0 0 0 1.168.094 7.312 7.312 0 0 0 6.799-4.562c.364-.898.545-1.86.534-2.828-.015-1.288-.532-2.868-1.348-4.132-.814-1.259-2.064-2.406-3.619-2.39-.758.001-1.276.418-1.622.891v-.001Zm4.436 2.764a3.166 3.166 0 0 0-.841-.023l-.774-1.3-1.146.68.595 1a4.529 4.529 0 0 0-.71.417 2.456 2.456 0 0 0-.012-.038c-.178-.54-.522-.984-.98-1.425l.002-.013c.046-.216.12-.494.23-.764.248-.61.537-.858.826-.858h.008c.86-.009 1.757.652 2.487 1.781.114.175.219.356.316.542Zm-4.107 1.997c-.22.006-.446.03-.666.079a2.507 2.507 0 0 0-.708-.764 2.147 2.147 0 0 0-2.028-.262 9.13 9.13 0 0 0-.216-.12l2.155-2.113-.933-.952-2.556 2.506c-.54-.156-1.045-.212-1.499-.15a5.803 5.803 0 0 1 2.37-2.482c.91-.509 1.692-.481 2.181-.2.466.267.854.874.757 1.958l-.03.335.252.224c.548.485.776.798.874 1.098.07.21.092.463.047.843Zm-1.873.67c-.57.477-.951 1.146-1.173 1.868l-1.983-2.176-.986.898 2.726 2.992c-.004.795.098 1.608.246 2.344A5.967 5.967 0 0 1 8 14.411c0-.694.192-1.072.42-1.237.213-.157.683-.286 1.646.07.348.128.75.325 1.211.612l.335.208.344-.194c.415-.233.732-.15.976.02.107.075.198.168.268.263Zm1.177 6.245 4.861-5.358-.988-.896-1.954 2.154.005-.676-1.334-.01-.016 2.167-1.655 1.825a9.915 9.915 0 0 1-.176-2.098c.043-1.17.51-2.132 1.202-2.513.286-.158.792-.22 1.192-.149l.594.104.163-.58c.085-.302.311-.626.665-.914.358-.29.775-.497 1.222-.61.534-.13.99-.063 1.29.144.261.18.525.548.55 1.303v.011l.002.107a5.974 5.974 0 0 1-5.623 5.988v.001Z" fill="#6D8434"/></svg>