<svg width="118" height="21" fill="none" xmlns="http://www.w3.org/2000/svg"><g clip-path="url('#clip0_2_1079')"><path d="M0 14.03c.89-.109 1.38-.508 1.38-1.216V5.428c0-.707-.491-1.124-1.38-1.215v-.726h9.219c.163 0 .236.054.254.181.054.545.09 1.09.38 2.414H9.4c-.635-1.107-1.18-1.688-2.25-1.688H5.607c-.816 0-1.161.454-1.161 1.18v1.905c0 .725.345 1.125 1.161 1.125h.726c1.47 0 1.742-.345 1.887-1.162h.4v3.23h-.4C8.075 9.91 7.803 9.53 6.333 9.53h-.726c-.816 0-1.161.4-1.161 1.125v2.16c0 .707.49 1.106 1.56 1.216v.725H0v-.726.001Zm14.433.835c-2.232 0-4.5-1.343-4.5-4.283 0-2.921 2.269-4.174 4.446-4.174 2.25 0 4.5 1.343 4.5 4.283 0 2.922-2.25 4.174-4.446 4.174Zm-1.597-5.08c0 2.25.744 4.245 1.906 4.245.707 0 1.234-.707 1.234-2.576 0-2.232-.708-4.229-1.905-4.229-.726 0-1.235.726-1.235 2.56Zm11.353 5.08c-2.232 0-4.5-1.343-4.5-4.283 0-2.921 2.269-4.174 4.446-4.174 2.25 0 4.5 1.343 4.5 4.283 0 2.922-2.25 4.174-4.446 4.174Zm-1.596-5.08c0 2.25.743 4.245 1.905 4.245.707 0 1.234-.707 1.234-2.576 0-2.232-.708-4.229-1.905-4.229-.726 0-1.234.726-1.234 2.56Zm10.318 5.08c-1.706 0-3.466-1.398-3.466-4.083 0-2.886 1.978-4.374 3.901-4.374 1.996 0 2.522 1.56 2.522-.272v-1.09c0-.852-.472-.997-1.143-.943v-.707l2.958-.49c.617-.091.907.181.907.725v9.274c0 .598.236.998.762.78v.399c-.254.617-.907.78-1.47.78-.617 0-1.397-.2-1.615-.744-.145-.344-.308-.526-.58-.526-.363 0-1.09 1.27-2.777 1.27h.001Zm-.545-5.027c0 1.797.799 3.557 1.96 3.557.707 0 1.542-.508 1.542-2.033v-.853c0-2.359-1.106-3.285-2.014-3.285-.925 0-1.488 1.144-1.488 2.614Zm10.796 4.192c.89-.109 1.38-.508 1.38-1.216V5.447c0-.726-.491-1.143-1.38-1.234v-.726h5.607c3.557 0 5.317.853 5.317 2.686 0 1.034-.599 2.05-2.668 2.377 2.323.326 3.321 1.415 3.321 2.958 0 2.105-1.87 3.248-4.41 3.248-1.452 0-4.536-.454-7.168 0v-.726h.001Zm4.446-.944c0 .473.29.69.817.69h.635c1.379 0 2.413-.526 2.413-2.286 0-1.706-1.052-2.45-3.048-2.45-.472 0-.817.363-.817 1.089v2.957Zm0-6.006c0 .726.345 1.089 1.161 1.089h.472c1.253 0 1.58-.98 1.58-1.815 0-1.27-.69-1.978-1.87-1.978h-.182c-.816 0-1.16.381-1.16 1.107V7.08Zm12.45 7.785c-2.231 0-4.5-1.343-4.5-4.283 0-2.921 2.27-4.174 4.447-4.174 2.25 0 4.5 1.343 4.5 4.283 0 2.922-2.25 4.174-4.446 4.174Zm-1.596-5.08c0 2.25.744 4.245 1.905 4.245.708 0 1.234-.707 1.234-2.576 0-2.232-.707-4.229-1.905-4.229-.726 0-1.234.726-1.234 2.56Zm9.987 5.08c-1.27 0-2.65-.526-2.65-3.375V8.604c0-.835-.472-.98-1.143-.962v-.707l2.958-.49c.617-.091.907.181.907.725v3.884c0 1.27.526 2.178 1.506 2.178.998 0 1.506-.908 1.506-2.178v-2.45c0-.835-.472-.98-1.143-.962v-.707l2.94-.49c.635-.091.925.181.925.725v5.735c0 .598.236.998.762.78v.399c-.254.617-.907.78-1.524.78-1.307 0-1.67-.816-1.76-1.216-.055-.254-.2-.38-.327-.38s-.218.108-.308.235c-.508.69-1.216 1.361-2.65 1.361Zm10.822-.018c-1.67 0-2.686-.926-2.686-2.686V8.187c0-.636-.145-.762-.563-.762h-.817v-.581c1.506-.345 2.233-1.035 2.85-2.033.145-.236.272-.308.507-.308h.327c.272 0 .436.163.436.436l-.019 1.125c0 .399.2.508 1.125.508h1.18v.961l-1.18-.073c-.925-.054-1.125.11-1.125.763v3.847c0 .998.109 1.67.999 1.67.235 0 .598-.037.943-.291.236.29.326.544.09.762-.416.363-1.16.635-2.068.635Zm3.072-.799c.835-.054 1.143-.326 1.143-1.306V8.586c0-.853-.472-.998-1.125-.943v-.708l2.94-.49c.617-.09.907.182.907.726v5.57c0 .98.308 1.253 1.125 1.307v.708h-4.99v-.708Zm.708-9.89c0-.87.725-1.542 1.578-1.542.835 0 1.543.672 1.543 1.543 0 .87-.708 1.542-1.543 1.542-.853 0-1.578-.672-1.578-1.542Zm9.702 13.356c1.034-.072 1.342-.344 1.342-1.252v-1.941c0-.327-.163-.436-.326-.436a.358.358 0 0 0-.254.109c-.363.362-1.143.87-2.287.87-1.87 0-3.593-1.378-3.593-4.046 0-2.903 2.014-4.41 4.1-4.41 1.816 0 2.578 1.107 3.25 1.107.635 0 .889-1.089 1.397-1.089.326 0 .435.181.435.436v9.4c0 .907.308 1.18 1.125 1.252v.69h-5.19v-.69ZM90.557 9.82c0 1.796.762 3.575 2.032 3.575.69 0 1.489-.508 1.506-2.54-.018-2.722-1.143-3.63-2.05-3.63-.98 0-1.489 1.143-1.489 2.595Zm10.908 5.045c-1.271 0-2.65-.526-2.65-3.375V8.604c0-.835-.472-.98-1.143-.962v-.707l2.958-.49c.617-.091.907.181.907.725v3.884c0 1.27.526 2.178 1.506 2.178.998 0 1.506-.908 1.506-2.178v-2.45c0-.835-.472-.98-1.143-.962v-.707l2.94-.49c.635-.091.925.181.925.725v5.735c0 .598.236.998.762.78v.399c-.254.617-.907.78-1.524.78-1.307 0-1.67-.816-1.76-1.216-.055-.254-.2-.38-.327-.38s-.218.108-.308.235c-.508.69-1.216 1.361-2.65 1.361h.001Zm11.813 0c-2.268 0-4.518-1.306-4.518-4.156 0-2.976 2.432-4.3 4.682-4.3 1.924 0 3.485.962 3.485 2.558 0 1.634-1.579 1.724-3.176 1.851l-1.416.11c-.308.017-.472.162-.472.58 0 1.343 1.452 1.941 2.65 1.941.635 0 1.506-.181 2.159-.925l.545.49c-.345.708-1.815 1.851-3.938 1.851h-.001Zm-1.542-5.426c0 .526.127.798.599.78l.653-.073c1.253-.127 1.506-.453 1.506-1.16 0-.872-.363-1.743-1.306-1.743-1.179 0-1.452 1.325-1.452 2.196Z" fill="#E8E8E2"/></g><defs><clipPath id="clip0_2_1079"><path fill="#fff" transform="translate(0 .41)" d="M0 0h118v20H0z"/></clipPath></defs></svg>