<svg width="100" height="101" fill="none" xmlns="http://www.w3.org/2000/svg"><g clip-path="url('#clip0_2031_3')"><path d="M100 50.88c0 27.616-22.384 50-50 50s-50-22.384-50-50 22.384-50 50-50 50 22.384 50 50Z" fill="#7E9A23"/><path d="M78.669 54.574c.325-2.54 2.284-3.853 4.806-3.532 2.522.322 4.088 2.088 3.763 4.625-.326 2.541-2.285 3.854-4.807 3.532-2.522-.322-4.087-2.085-3.762-4.625Zm1.365.175c-.203 1.587.947 2.572 2.613 2.784 1.681.216 3.025-.453 3.228-2.037.203-1.585-.928-2.572-2.612-2.785-1.666-.212-3.026.453-3.229 2.038Zm4.77 10.244a5.4 5.4 0 0 1-.291.678l-1.494-.529.01-.03c.796-1.432.202-3.02-1.441-3.6l-3.938-1.395.56-1.584 7.706 2.728-.56 1.585-1.447-.513-.009.031c.822.75 1.26 1.62.903 2.629Zm-4.12 7.196-.887 1.429-6.469-4.02c-1.997-1.24-2.131-3-.906-4.968 1.24-1.997 2.972-2.45 4.234-1.872l-.894 1.44c-.696-.243-1.462-.04-2.162 1.088-.744 1.197-.578 2.147.672 2.922l.844.522.015-.028c-.287-.688-.41-1.647.275-2.747 1.081-1.74 3.1-2.294 5.288-.934 2.203 1.368 2.587 3.415 1.506 5.156-.684 1.1-1.597 1.419-2.316 1.481l-.015.028.815.503Zm-4.278-5.237c-.719 1.156-.387 2.322 1.081 3.234 1.47.913 2.66.69 3.379-.465.775-1.25.234-2.472-1.057-3.275-1.278-.794-2.625-.744-3.403.506Zm-3.097 10.26c.41.427.972.512 1.785-.26.975-.925 1.047-1.569.378-2.39l1.184-1.126c1.022 1.19 1.14 2.778-.647 4.478-1.309 1.247-2.759 1.672-4.259.097l-2.678-2.819c-.397-.418-.7-.55-1.131-.05l-.55-.58a2.5 2.5 0 0 1 .587-.8c.65-.62 1.172-.673 1.838-.204l.022-.022c-.125-.875.206-1.875 1.121-2.743 1.207-1.147 2.61-1.157 3.557-.16 1.234 1.3.656 2.619-.55 4.322-.75 1.044-1.197 1.688-.657 2.256Zm-1.7-5.207c-1.009.96-1.23 2.119-.315 3.081l.85.894c.065-.325.41-.919.865-1.575.8-1.178.966-1.888.391-2.49-.519-.544-1.128-.538-1.79.09Zm-4.165 12.066c-1.335.728-2.81.534-3.707-1.11l-2.709-4.956 1.488-.813 2.478 4.535c.528.969 1.275 1.362 2.284.812 1.138-.621 1.49-1.709.906-2.775L65.797 75.4l1.475-.806 3.922 7.174-1.475.807-.506-.928-.029.015c-.072.769-.509 1.738-1.743 2.413l.003-.003Zm-5.157 3.428c.441-.144.997.012 1.175.562.179.55-.184.985-.625 1.128-.471.154-1.006.007-1.184-.54-.178-.547.166-.997.638-1.15h-.003Zm.366-1.566-1.597.519-2.525-7.778 1.597-.519 2.525 7.778Zm-10.06-.881c.17.816.823 1.75 2.25 1.569 1.635-.21 2.154-1.694 1.96-3.22-.194-1.524-1.056-2.834-2.706-2.621-1.428.181-1.825 1.234-1.775 2.147l-1.666.212c-.112-1.887 1.157-3.453 3.266-3.725 2.428-.309 4.222 1.235 4.547 3.775.325 2.541-1.022 4.488-3.435 4.794-2.109.269-3.662-.903-4.106-2.719l1.666-.212Zm-16.209 2.487c1.025.37 1.457.388 1.732-.5l.265-.856-1.434-.447.41-1.312 1.434.447 2.025-6.491 1.618.506-2.025 6.49 1.116.348-.41 1.312L40 86.69l-.31.994c-.515 1.65-1.396 2.01-2.68 1.61a5.815 5.815 0 0 1-1.035-.441l.41-1.313Zm-.121-11.44c2.24 1.237 2.743 3.54 1.512 5.769-1.231 2.228-3.447 3.034-5.688 1.796-2.24-1.237-2.743-3.54-1.512-5.768 1.231-2.228 3.447-3.035 5.688-1.797Zm-.666 1.203c-1.4-.772-2.74-.069-3.55 1.403-.819 1.484-.694 2.981.706 3.753 1.4.772 2.731.081 3.55-1.403.813-1.472.694-2.981-.706-3.753Z" fill="#fff"/><path d="M30.316 71.736c1.856 1.763 1.756 4.119.003 5.966-1.753 1.847-4.1 2.062-5.956.3-1.857-1.763-1.757-4.119-.004-5.966 1.753-1.847 4.1-2.062 5.957-.3Zm-.947 1c-1.16-1.103-2.635-.76-3.79.46-1.17 1.228-1.426 2.706-.267 3.809 1.16 1.103 2.622.772 3.791-.46 1.156-1.218 1.425-2.706.266-3.809Z" fill="#fff"/><path d="m14.637 70.346-.865-1.441 9.806-5.89.866 1.44-.81.487.016.029a3.056 3.056 0 0 1 2.3 1.53c1.078 1.798.478 3.97-1.825 5.354s-4.503.894-5.581-.903c-.65-1.084-.556-2.075-.244-2.766l-.016-.028-3.65 2.19.003-.002Zm9.988-3.388c-.71-1.178-2.119-1.322-3.669-.39-1.562.94-2.087 2.243-1.378 3.421.76 1.263 2.313 1.241 3.684.42 1.372-.823 2.12-2.188 1.363-3.45Zm-3.222-14.906c.1 2.56-1.615 4.178-4.16 4.275-2.543.097-4.377-1.384-4.474-3.944-.097-2.56 1.615-4.178 4.16-4.275 2.54-.097 4.377 1.388 4.474 3.944Zm-1.375.053c-.062-1.6-1.356-2.381-3.034-2.316-1.694.066-2.91.944-2.847 2.544.062 1.6 1.34 2.381 3.034 2.316 1.678-.066 2.91-.944 2.847-2.544Zm-6.375-9.475c.05-.284.103-.484.178-.716l1.56.279-.007.03c-.553 1.544.291 3.01 2.007 3.32l4.109.734-.297 1.653-8.047-1.44.297-1.654 1.513.272.006-.031c-.931-.606-1.506-1.39-1.319-2.447Zm2.869-7.734.644-1.553 7.037 2.915c2.172.9 2.588 2.613 1.7 4.756-.9 2.172-2.534 2.9-3.872 2.535l.65-1.566c.725.128 1.45-.197 1.956-1.422.538-1.3.222-2.21-1.137-2.775l-.916-.378-.012.028c.397.632.672 1.56.175 2.757-.785 1.89-2.688 2.765-5.066 1.78-2.394-.99-3.11-2.95-2.325-4.84.497-1.197 1.347-1.66 2.044-1.837l.013-.029-.888-.368-.003-.003Zm5.072 4.475c.522-1.257.006-2.354-1.59-3.016-1.598-.662-2.738-.25-3.257 1.006-.563 1.36.169 2.478 1.572 3.06 1.39.575 2.712.309 3.275-1.05Zm1.393-10.641c-.471-.36-1.04-.35-1.718.54-.816 1.07-.785 1.716.01 2.42l-.988 1.296c-1.2-1.012-1.57-2.562-.075-4.522 1.096-1.437 2.456-2.09 4.187-.771l3.094 2.356c.46.35.778.431 1.125-.128l.637.484c-.09.321-.243.622-.45.884-.543.713-1.05.85-1.784.494l-.019.025c.263.844.094 1.881-.672 2.888-1.009 1.325-2.393 1.556-3.487.725-1.425-1.085-1.066-2.482-.144-4.354.575-1.15.913-1.859.288-2.334l-.003-.003Zm2.507 4.869c.843-1.106.878-2.288-.178-3.094l-.982-.747c-.012.335-.256.972-.603 1.69-.6 1.291-.65 2.02.01 2.523.596.456 1.2.35 1.753-.375v.003Zm2.072-12.525c1.197-.938 2.684-.988 3.837.484l3.488 4.444-1.335 1.047-3.19-4.066c-.682-.869-1.482-1.137-2.388-.425-1.019.8-1.19 1.931-.44 2.888l3.071 3.915-1.322 1.038-5.046-6.431 1.322-1.038.653.831.025-.018c-.057-.77.215-1.8 1.325-2.67Zm4.603-4.29c-.413.212-.985.15-1.25-.363-.266-.513.022-1.003.434-1.216.44-.228.994-.172 1.256.34.263.513 0 1.01-.44 1.238Zm-.106 1.605 1.49-.771 3.763 7.259-1.491.772-3.763-7.26Zm10.078-.787c-.3-.778-1.097-1.594-2.475-1.178-1.578.472-1.85 2.025-1.41 3.497.44 1.471 1.503 2.622 3.097 2.143 1.378-.412 1.6-1.515 1.4-2.406l1.61-.481c.418 1.847-.575 3.597-2.616 4.206-2.344.703-4.369-.528-5.103-2.981-.735-2.453.278-4.594 2.606-5.29 2.038-.61 3.763.293 4.494 2.009l-1.61.48h.007Zm15.518-5.1c-1.072-.197-1.5-.144-1.628.775l-.125.887 1.49.21-.19 1.362-1.49-.21-.941 6.735-1.681-.234.94-6.735-1.156-.162.19-1.363 1.157.163.144-1.031c.237-1.713 1.053-2.213 2.384-2.025.413.056.769.156 1.094.265l-.188 1.363Zm2.016 11.256c-2.412-.853-3.284-3.047-2.434-5.444.85-2.396 2.903-3.553 5.318-2.7 2.413.854 3.285 3.047 2.435 5.444-.85 2.397-2.903 3.553-5.319 2.7Zm.46-1.297c1.509.535 2.715-.381 3.274-1.962.566-1.6.197-3.053-1.309-3.588-1.506-.534-2.71.366-3.275 1.963-.56 1.584-.197 3.053 1.31 3.587Z" fill="#fff"/><path d="M66.156 27.008c-2.119-1.437-2.406-3.778-.978-5.884 1.428-2.107 3.71-2.703 5.828-1.266 2.119 1.438 2.406 3.778.978 5.884-1.428 2.107-3.709 2.704-5.828 1.266Zm.772-1.137c1.325.896 2.722.318 3.666-1.072.953-1.403.962-2.903-.36-3.8-1.322-.897-2.712-.331-3.665 1.072-.944 1.39-.963 2.903.36 3.8Zm15.094.103 1.084 1.284-8.737 7.384-1.085-1.284.722-.61-.022-.024a3.06 3.06 0 0 1-2.515-1.14c-1.353-1.6-1.11-3.841.944-5.576 2.053-1.734 4.3-1.603 5.653-.003.815.966.88 1.96.68 2.69l.023.026 3.253-2.747Zm-9.313 4.944c.888 1.05 2.303.965 3.685-.204 1.393-1.178 1.7-2.546.812-3.6-.95-1.125-2.481-.856-3.706.178-1.225 1.035-1.744 2.5-.79 3.625ZM55 46.88c-9 2-11.1 8.169-13.181 13.34l1.89.66.95-2.3c.482.169.982.3 1.341.3 11 0 14-17 14-17-1 2-8 2.25-13 3.25s-7 5.25-7 7.25 1.75 3.75 1.75 3.75C45 46.88 55 46.88 55 46.88Z" fill="#fff"/></g><defs><clipPath id="clip0_2031_3"><path fill="#fff" transform="translate(0 .88)" d="M0 0h100v100H0z"/></clipPath></defs></svg>