<svg width="8" height="19" viewBox="0 0 8 19" fill="none" xmlns="http://www.w3.org/2000/svg">
<g clip-path="url(#clip0_2_212)">
<g clip-path="url(#clip1_2_212)">
<path d="M1.1995 5.88C1.09341 5.88 0.991673 5.92215 0.916653 5.99716C0.84164 6.07218 0.7995 6.17392 0.7995 6.28001C0.7995 6.38609 0.84164 6.48783 0.916653 6.56285C0.991673 6.63786 1.09341 6.68001 1.1995 6.68001H1.6875L1.8095 7.16881C1.81071 7.17443 1.81205 7.18003 1.8135 7.18561L2.3567 9.3576L1.9995 9.7144C1.4955 10.2184 1.8523 11.08 2.5651 11.08H5.9995C6.10559 11.08 6.20733 11.0379 6.28234 10.9628C6.35735 10.8878 6.3995 10.7861 6.3995 10.68C6.3995 10.5739 6.35735 10.4722 6.28234 10.3972C6.20733 10.3221 6.10559 10.28 5.9995 10.28H2.5651L2.9651 9.88H5.5995C5.67376 9.87997 5.74655 9.85925 5.80971 9.82018C5.87287 9.78111 5.9239 9.72523 5.9571 9.6588L7.15709 7.25881C7.18755 7.19783 7.20195 7.13009 7.19889 7.06201C7.19582 6.99392 7.17542 6.92775 7.13955 6.86976C7.10375 6.81178 7.05369 6.76391 6.99422 6.7307C6.93469 6.69749 6.86769 6.68004 6.79949 6.68001H2.5115L2.3875 6.18281C2.36583 6.09631 2.31588 6.01953 2.24558 5.96467C2.17529 5.90981 2.08867 5.88001 1.9995 5.88H1.1995ZM6.3995 12.08C6.3995 12.2392 6.33629 12.3918 6.22376 12.5043C6.11124 12.6168 5.95863 12.68 5.7995 12.68C5.64037 12.68 5.48775 12.6168 5.37523 12.5043C5.26271 12.3918 5.1995 12.2392 5.1995 12.08C5.1995 11.9209 5.26271 11.7683 5.37523 11.6557C5.48775 11.5432 5.64037 11.48 5.7995 11.48C5.95863 11.48 6.11124 11.5432 6.22376 11.6557C6.33629 11.7683 6.3995 11.9209 6.3995 12.08ZM2.5995 12.68C2.75863 12.68 2.91124 12.6168 3.02376 12.5043C3.13629 12.3918 3.1995 12.2392 3.1995 12.08C3.1995 11.9209 3.13629 11.7683 3.02376 11.6557C2.91124 11.5432 2.75863 11.48 2.5995 11.48C2.44037 11.48 2.28775 11.5432 2.17523 11.6557C2.06271 11.7683 1.9995 11.9209 1.9995 12.08C1.9995 12.2392 2.06271 12.3918 2.17523 12.5043C2.28775 12.6168 2.44037 12.68 2.5995 12.68Z" fill="#6D8434"/>
</g>
</g>
<defs>
<clipPath id="clip0_2_212">
<rect width="8" height="18" fill="white" transform="translate(0 0.47998)"/>
</clipPath>
<clipPath id="clip1_2_212">
<rect width="8" height="8" fill="white" transform="translate(0 5.47998)"/>
</clipPath>
</defs>
</svg>
