<svg width="28" height="29" viewBox="0 0 28 29" fill="none" xmlns="http://www.w3.org/2000/svg">
<rect y="0.410156" width="28" height="28" rx="14" fill="#E8E8E2"/>
<path d="M14.744 8.72197C14.5125 8.37002 14.2012 8.07761 13.8355 7.86847C12.83 7.29197 11.535 7.39297 10.3395 8.06247C8.11999 9.30597 6.66699 11.643 6.66699 14.41C6.66699 18.1035 9.34049 21.0855 12.8315 21.65C13.2179 21.7123 13.6086 21.7435 14 21.7435C14.9687 21.7467 15.9283 21.5574 16.8232 21.1866C17.7181 20.8158 18.5304 20.2708 19.213 19.5835C19.8956 18.896 20.4346 18.0796 20.7985 17.1818C21.1625 16.284 21.3442 15.3227 21.333 14.354C21.3175 13.066 20.801 11.4855 19.9845 10.222C19.171 8.96347 17.9205 7.81647 16.3665 7.83147C15.608 7.83297 15.09 8.24997 14.744 8.72347V8.72197ZM19.1805 11.4855C18.9021 11.4407 18.6189 11.4333 18.3385 11.4635L17.565 10.1635L16.4195 10.8435L17.014 11.8435C16.7652 11.9605 16.5275 12.0999 16.304 12.26C16.3001 12.2471 16.2961 12.2343 16.292 12.2215C16.114 11.6815 15.77 11.238 15.3115 10.7975L15.314 10.784C15.36 10.5685 15.4335 10.2905 15.5435 10.0205C15.792 9.40997 16.081 9.16247 16.37 9.16247H16.3775C17.238 9.15297 18.135 9.81397 18.865 10.943C18.9785 11.1185 19.0835 11.299 19.181 11.4845L19.1805 11.485V11.4855ZM15.0735 13.4835C14.8535 13.489 14.6275 13.5135 14.407 13.5615C14.227 13.2602 13.9858 13.0001 13.699 12.798C13.1725 12.428 12.451 12.2445 11.671 12.536C11.5995 12.4948 11.5275 12.4547 11.455 12.4155L13.6105 10.303L12.677 9.35097L10.1205 11.857C9.58049 11.7005 9.07599 11.6445 8.62249 11.707C9.1443 10.6598 9.97042 9.79484 10.9925 9.22547C11.902 8.71597 12.684 8.74397 13.173 9.02497C13.6395 9.29247 14.027 9.89897 13.9295 10.983L13.8995 11.3185L14.1515 11.542C14.6995 12.0265 14.9275 12.34 15.026 12.6395C15.0955 12.8495 15.118 13.103 15.0735 13.4835ZM13.2 14.1535C12.6305 14.63 12.2485 15.299 12.0265 16.0215L10.044 13.845L9.05799 14.7435L11.7835 17.7355C11.78 18.53 11.882 19.3435 12.03 20.079C10.85 19.6741 9.82652 18.9095 9.10363 17.8927C8.38074 16.8759 7.99477 15.658 7.99999 14.4105C7.99999 13.717 8.19249 13.339 8.41949 13.174C8.63349 13.0165 9.10349 12.888 10.066 13.2435C10.414 13.372 10.8165 13.5695 11.2775 13.856L11.612 14.064L11.956 13.8705C12.3715 13.637 12.6885 13.72 12.932 13.8905C13.0385 13.965 13.13 14.058 13.2 14.1535ZM14.3765 20.398L19.238 15.04L18.2505 14.144L16.296 16.298L16.3005 15.622L14.967 15.6125L14.9515 17.779L13.296 19.6035C13.1705 18.923 13.096 18.1915 13.12 17.5055C13.1625 16.3355 13.63 15.374 14.3215 14.9935C14.608 14.8355 15.114 14.7735 15.514 14.844L16.1075 14.9475L16.271 14.368C16.3565 14.066 16.5825 13.7425 16.9355 13.4545C17.294 13.1649 17.7111 12.9566 18.158 12.844C18.692 12.7135 19.1475 12.7815 19.4475 12.988C19.7095 13.168 19.973 13.536 19.9975 14.2905V14.3025L19.9995 14.409C20.0058 15.9368 19.4265 17.4091 18.3806 18.5229C17.3347 19.6367 15.9017 20.3073 14.3765 20.397V20.398Z" fill="#6D8434"/>
</svg>
