<svg width="118" height="21" viewBox="0 0 118 21" fill="none" xmlns="http://www.w3.org/2000/svg">
<g clip-path="url(#clip0_2_1079)">
<path d="M0 14.03C0.889418 13.9213 1.37909 13.5221 1.37909 12.8141V5.42846C1.37909 4.72098 0.888899 4.30356 0 4.21259V3.48692H9.21855C9.38178 3.48692 9.45455 3.5415 9.47275 3.66833C9.52733 4.21259 9.56372 4.75736 9.85378 6.08188H9.39997C8.76475 4.97517 8.22049 4.39401 7.14966 4.39401H5.60734C4.7907 4.39401 4.44605 4.84781 4.44605 5.57349V7.47864C4.44605 8.20432 4.7907 8.60354 5.60734 8.60354H6.33301C7.80307 8.60354 8.07494 8.2589 8.22049 7.44226H8.61972V10.6724H8.22049C8.07546 9.91038 7.80307 9.52935 6.33301 9.52935H5.60734C4.7907 9.52935 4.44605 9.92857 4.44605 10.6542V12.8136C4.44605 13.5211 4.93625 13.9203 6.00656 14.0295V14.7551H0V14.0295V14.03ZM14.4334 14.8648C12.2013 14.8648 9.93331 13.5221 9.93331 10.582C9.93331 7.66058 12.2018 6.40833 14.3794 6.40833C16.6297 6.40833 18.8795 7.75103 18.8795 10.6912C18.8795 13.6126 16.6292 14.8648 14.4334 14.8648ZM12.8365 9.78406C12.8365 12.0344 13.5804 14.0305 14.7417 14.0305C15.4492 14.0305 15.9757 13.323 15.9757 11.4537C15.9757 9.22161 15.2683 7.22549 14.0706 7.22549C13.3449 7.22549 12.8365 7.95116 12.8365 9.78406ZM24.1895 14.8648C21.9574 14.8648 19.6894 13.5221 19.6894 10.582C19.6894 7.66058 21.9579 6.40833 24.1354 6.40833C26.3857 6.40833 28.6355 7.75103 28.6355 10.6912C28.6355 13.6126 26.3852 14.8648 24.1895 14.8648ZM22.5926 9.78406C22.5926 12.0344 23.3364 14.0305 24.4977 14.0305C25.2052 14.0305 25.7318 13.323 25.7318 11.4537C25.7318 9.22161 25.0243 7.22549 23.8266 7.22549C23.101 7.22549 22.5926 7.95116 22.5926 9.78406ZM32.9111 14.8648C31.2055 14.8648 29.4449 13.4675 29.4449 10.7816C29.4449 7.89606 31.4228 6.40833 33.3462 6.40833C35.3423 6.40833 35.8684 7.96884 35.8684 6.13594V5.04691C35.8684 4.19388 35.3964 4.04885 34.7253 4.10343V3.39595L37.6831 2.90575C38.3001 2.81478 38.5902 3.08717 38.5902 3.63143V12.9046C38.5902 13.5034 38.8262 13.9026 39.3522 13.6848V14.084C39.098 14.7011 38.4451 14.8643 37.8822 14.8643C37.2651 14.8643 36.4849 14.6647 36.2671 14.1204C36.122 13.7758 35.9588 13.5944 35.6864 13.5944C35.3236 13.5944 34.5974 14.8648 32.91 14.8648H32.9111ZM32.3663 9.83812C32.3663 11.6346 33.1648 13.3948 34.326 13.3948C35.0335 13.3948 35.8684 12.8869 35.8684 11.3622V10.5092C35.8684 8.15025 34.7617 7.22445 33.854 7.22445C32.9288 7.22445 32.3658 8.36754 32.3658 9.8376L32.3663 9.83812ZM43.162 14.03C44.0514 13.9213 44.5411 13.5221 44.5411 12.8141V5.44665C44.5411 4.72098 44.0509 4.30356 43.162 4.21259V3.48692H48.7693C52.326 3.48692 54.0861 4.33995 54.0861 6.17285C54.0861 7.20729 53.4873 8.22355 51.4184 8.55C53.7409 8.87645 54.739 9.96548 54.739 11.5078C54.739 13.6126 52.8697 14.7562 50.3293 14.7562C48.8775 14.7562 45.7928 14.3024 43.1615 14.7562V14.0305L43.162 14.03ZM47.6081 13.0865C47.6081 13.5585 47.8986 13.7763 48.4247 13.7763H49.0599C50.439 13.7763 51.4735 13.2502 51.4735 11.4896C51.4735 9.78406 50.4208 9.03967 48.4247 9.03967C47.9527 9.03967 47.6081 9.40251 47.6081 10.1287V13.0865ZM47.6081 7.07994C47.6081 7.80561 47.9527 8.16897 48.7693 8.16897H49.2413C50.4936 8.16897 50.8201 7.1891 50.8201 6.35426C50.8201 5.08381 50.1302 4.37633 48.9508 4.37633H48.7693C47.9527 4.37633 47.6081 4.75736 47.6081 5.48304V7.07994ZM60.0589 14.8648C57.8268 14.8648 55.5588 13.5221 55.5588 10.582C55.5588 7.66058 57.8273 6.40833 60.0048 6.40833C62.2551 6.40833 64.5049 7.75103 64.5049 10.6912C64.5049 13.6126 62.2546 14.8648 60.0589 14.8648ZM58.462 9.78406C58.462 12.0344 59.2058 14.0305 60.3671 14.0305C61.0746 14.0305 61.6012 13.323 61.6012 11.4537C61.6012 9.22161 60.8937 7.22549 59.696 7.22549C58.9704 7.22549 58.462 7.95116 58.462 9.78406ZM68.4488 14.8648C67.1784 14.8648 65.7993 14.3388 65.7993 11.4896V8.60406C65.7993 7.76922 65.3273 7.62419 64.6562 7.64239V6.93491L67.614 6.44471C68.231 6.35374 68.5211 6.62613 68.5211 7.17039V11.054C68.5211 12.3244 69.0471 13.2315 70.027 13.2315C71.0251 13.2315 71.533 12.3244 71.533 11.054V8.60406C71.533 7.76922 71.061 7.62419 70.3899 7.64239V6.93491L73.3295 6.44471C73.9647 6.35374 74.2547 6.62613 74.2547 7.17039V12.9046C74.2547 13.5034 74.4907 13.9026 75.0168 13.6848V14.084C74.7626 14.7011 74.1097 14.8643 73.4927 14.8643C72.1864 14.8643 71.823 14.0477 71.7326 13.6484C71.678 13.3942 71.533 13.2674 71.4061 13.2674C71.2793 13.2674 71.1883 13.376 71.0979 13.5034C70.59 14.1932 69.882 14.8643 68.4483 14.8643L68.4488 14.8648ZM79.2705 14.8466C77.6009 14.8466 76.5846 13.9213 76.5846 12.1607V8.18664C76.5846 7.55142 76.4396 7.42458 76.0221 7.42458H75.2055V6.84394C76.7114 6.49929 77.4376 5.80949 78.0547 4.81143C78.1997 4.57543 78.327 4.50317 78.5625 4.50317H78.889C79.1614 4.50317 79.3246 4.6664 79.3246 4.93878L79.3064 6.06368C79.3064 6.46291 79.506 6.57155 80.4313 6.57155H81.6108V7.53322L80.4313 7.46045C79.506 7.40587 79.3064 7.56909 79.3064 8.22251V12.0697C79.3064 13.0678 79.415 13.7394 80.3045 13.7394C80.5405 13.7394 80.9033 13.703 81.2479 13.4488C81.4839 13.7394 81.5744 13.9931 81.3389 14.2109C80.9215 14.5737 80.1776 14.8461 79.27 14.8461L79.2705 14.8466ZM82.3432 14.0482C83.178 13.9936 83.4863 13.7217 83.4863 12.7419V8.58639C83.4863 7.73336 83.0143 7.58833 82.3614 7.64291V6.93543L85.301 6.44523C85.918 6.35426 86.2081 6.62665 86.2081 7.17091V12.7419C86.2081 13.7217 86.5164 13.9941 87.333 14.0482V14.7557H82.3427V14.0482H82.3432ZM83.0507 4.15853C83.0507 3.2873 83.7764 2.61621 84.6294 2.61621C85.4642 2.61621 86.1717 3.28782 86.1717 4.15853C86.1717 5.02923 85.4642 5.70085 84.6294 5.70085C83.7764 5.70085 83.0507 5.02923 83.0507 4.15853ZM92.7527 17.5144C93.7871 17.4416 94.0954 17.1697 94.0954 16.2621V14.3206C94.0954 13.9941 93.9322 13.885 93.7689 13.885C93.7215 13.8854 93.6746 13.8952 93.631 13.9139C93.5874 13.9325 93.5479 13.9596 93.5147 13.9936C93.1519 14.3564 92.3717 14.8648 91.228 14.8648C89.3587 14.8648 87.635 13.4857 87.635 10.818C87.635 7.91477 89.6493 6.40833 91.7359 6.40833C93.5506 6.40833 94.3127 7.51503 94.9843 7.51503C95.6195 7.51503 95.8737 6.426 96.3816 6.426C96.708 6.426 96.8172 6.60742 96.8172 6.86161V16.2616C96.8172 17.1687 97.1254 17.4411 97.9421 17.5138V18.2036H92.7522V17.5138L92.7527 17.5144ZM90.5569 9.81993C90.5569 11.6164 91.319 13.3948 92.5895 13.3948C93.2793 13.3948 94.0777 12.8869 94.0954 10.8544C94.0772 8.13258 92.9523 7.22497 92.0447 7.22497C91.0648 7.22497 90.5564 8.36806 90.5564 9.81993H90.5569ZM101.465 14.8648C100.194 14.8648 98.8154 14.3388 98.8154 11.4896V8.60406C98.8154 7.76922 98.3434 7.62419 97.6723 7.64239V6.93491L100.63 6.44471C101.247 6.35374 101.537 6.62613 101.537 7.17039V11.054C101.537 12.3244 102.063 13.2315 103.043 13.2315C104.041 13.2315 104.549 12.3244 104.549 11.054V8.60406C104.549 7.76922 104.077 7.62419 103.406 7.64239V6.93491L106.346 6.44471C106.981 6.35374 107.271 6.62613 107.271 7.17039V12.9046C107.271 13.5034 107.507 13.9026 108.033 13.6848V14.084C107.779 14.7011 107.126 14.8643 106.509 14.8643C105.202 14.8643 104.839 14.0477 104.749 13.6484C104.694 13.3942 104.549 13.2674 104.422 13.2674C104.295 13.2674 104.204 13.376 104.114 13.5034C103.606 14.1932 102.898 14.8643 101.464 14.8643L101.465 14.8648ZM113.278 14.8648C111.01 14.8648 108.76 13.5585 108.76 10.7093C108.76 7.73336 111.192 6.40885 113.442 6.40885C115.366 6.40885 116.927 7.37052 116.927 8.96742C116.927 10.6007 115.348 10.6912 113.751 10.8185L112.335 10.9272C112.027 10.9453 111.863 11.0904 111.863 11.5078C111.863 12.8505 113.315 13.4493 114.513 13.4493C115.148 13.4493 116.019 13.2679 116.672 12.5241L117.217 13.0142C116.872 13.7217 115.402 14.8653 113.279 14.8653L113.278 14.8648ZM111.736 9.4389C111.736 9.96496 111.863 10.2373 112.335 10.2192L112.988 10.1464C114.241 10.0195 114.494 9.69257 114.494 8.98509C114.494 8.11387 114.131 7.24316 113.188 7.24316C112.009 7.24316 111.736 8.56767 111.736 9.4389Z" fill="#E8E8E2"/>
</g>
<defs>
<clipPath id="clip0_2_1079">
<rect width="118" height="20" fill="white" transform="translate(0 0.410156)"/>
</clipPath>
</defs>
</svg>
