<svg width="15" height="16" viewBox="0 0 15 16" fill="none" xmlns="http://www.w3.org/2000/svg">
<path d="M9.94757 9.60862H9.34751L9.13473 9.40359C9.90477 8.51065 10.328 7.37055 10.3271 6.19143C10.3273 5.21511 10.0379 4.26066 9.49547 3.44888C8.95304 2.6371 8.18198 2.00448 7.27988 1.63108C6.60566 1.35212 5.87796 1.22611 5.14919 1.26212C4.42042 1.29814 3.7087 1.49528 3.06526 1.83936C2.42183 2.18345 1.86268 2.66591 1.42808 3.25202C0.993475 3.83813 0.694226 4.51331 0.551874 5.22895C0.409522 5.94459 0.427608 6.68289 0.604829 7.3907C0.78205 8.09851 1.114 8.75823 1.57678 9.32236C2.03956 9.88649 2.62166 10.341 3.28117 10.6532C3.94068 10.9653 4.6612 11.1274 5.39086 11.1277C6.6133 11.1277 7.73733 10.6798 8.60302 9.9353L8.80805 10.1481V10.7481L12.6048 14.5376L13.7361 13.4063L9.94666 9.60953L9.94757 9.60862ZM5.39132 9.60862C3.50047 9.60862 1.97413 8.08228 1.97413 6.19143C1.97413 4.30059 3.50047 2.77425 5.39132 2.77425C7.28216 2.77425 8.80851 4.30059 8.80851 6.19143C8.80851 8.08228 7.28216 9.60862 5.39132 9.60862Z" fill="black"/>
</svg>
