<svg width="38" height="38" viewBox="0 0 38 38" fill="none" xmlns="http://www.w3.org/2000/svg">
<rect width="38" height="38" rx="19" fill="#586F1F"/>
<path d="M12.6998 10.9C12.4611 10.9 12.2322 10.9948 12.0634 11.1636C11.8946 11.3324 11.7998 11.5613 11.7998 11.8C11.7998 12.0387 11.8946 12.2676 12.0634 12.4364C12.2322 12.6052 12.4611 12.7 12.6998 12.7H13.7978L14.0723 13.7997L14.0813 13.8374L15.3036 18.7244L14.4998 19.5271C13.3658 20.6611 14.1685 22.5994 15.7722 22.5994H23.4992C23.7379 22.5994 23.9669 22.5046 24.1356 22.3358C24.3044 22.167 24.3992 21.9381 24.3992 21.6994C24.3992 21.4607 24.3044 21.2318 24.1356 21.063C23.9669 20.8942 23.7379 20.7994 23.4992 20.7994H15.7716L16.6716 19.8994H22.5987C22.7658 19.8993 22.9296 19.8526 23.0718 19.7647C23.2139 19.6768 23.3288 19.5511 23.4036 19.4016L26.1036 14.0016C26.1722 13.8644 26.2049 13.7119 26.1976 13.5589C26.1902 13.4059 26.1447 13.2569 26.0642 13.1264C25.9838 12.9958 25.8712 12.8881 25.7373 12.8133C25.6034 12.7386 25.4526 12.6994 25.2992 12.6994H15.6512L15.3722 11.5806C15.3235 11.386 15.2111 11.2132 15.053 11.0897C14.8948 10.9661 14.6999 10.899 14.4992 10.8989H12.6992L12.6998 10.9ZM24.3998 24.85C24.4035 25.0296 24.3713 25.208 24.3051 25.375C24.2389 25.542 24.1401 25.6941 24.0144 25.8223C23.8887 25.9506 23.7386 26.0526 23.5731 26.1221C23.4075 26.1917 23.2297 26.2275 23.0501 26.2275C22.8705 26.2275 22.6927 26.1917 22.5271 26.1221C22.3615 26.0526 22.2115 25.9506 22.0858 25.8223C21.9601 25.6941 21.8613 25.542 21.7951 25.375C21.7289 25.208 21.6967 25.0296 21.7004 24.85C21.7076 24.4968 21.8529 24.1605 22.1053 23.9133C22.3576 23.666 22.6968 23.5275 23.0501 23.5275C23.4034 23.5275 23.7426 23.666 23.9949 23.9133C24.2472 24.1605 24.3926 24.4968 24.3998 24.85ZM15.8498 26.2C16.208 26.1999 16.5515 26.0576 16.8047 25.8042C17.0579 25.5509 17.2002 25.2073 17.2001 24.8491C17.2 24.491 17.0576 24.1475 16.8043 23.8942C16.551 23.641 16.2074 23.4988 15.8492 23.4989C15.4911 23.4989 15.1476 23.6413 14.8943 23.8946C14.6411 24.148 14.4989 24.4915 14.499 24.8497C14.499 25.2079 14.6414 25.5514 14.8947 25.8046C15.1481 26.0578 15.4916 26.2001 15.8498 26.2Z" fill="#E8E8E2"/>
</svg>
