<svg width="19" height="18" viewBox="0 0 19 18" fill="none" xmlns="http://www.w3.org/2000/svg">
<path d="M3.07993 0.89001C2.84124 0.89001 2.61232 0.984832 2.44354 1.15361C2.27475 1.3224 2.17993 1.55132 2.17993 1.79001C2.17993 2.02871 2.27475 2.25762 2.44354 2.42641C2.61232 2.59519 2.84124 2.69001 3.07993 2.69001H4.17793L4.45243 3.7897L4.46143 3.82739L5.68374 8.71439L4.87993 9.51707C3.74593 10.6511 4.54862 12.5894 6.15231 12.5894H13.8794C14.1181 12.5894 14.347 12.4946 14.5158 12.3258C14.6845 12.1571 14.7794 11.9281 14.7794 11.6894C14.7794 11.4508 14.6845 11.2218 14.5158 11.0531C14.347 10.8843 14.1181 10.7894 13.8794 10.7894H6.15174L7.05174 9.88945H12.9788C13.1459 9.88928 13.3097 9.84264 13.4519 9.75472C13.594 9.66681 13.7089 9.5411 13.7837 9.39164L16.4837 3.99164C16.5524 3.85439 16.585 3.70195 16.5777 3.54895C16.5704 3.39595 16.5248 3.24689 16.4444 3.11639C16.3639 2.98584 16.2514 2.87807 16.1174 2.80334C15.9835 2.72861 15.8327 2.6894 15.6794 2.68945H6.03137L5.75237 1.57064C5.70361 1.37598 5.59124 1.20318 5.43308 1.07967C5.27492 0.956161 5.08004 0.889014 4.87937 0.888885H3.07937L3.07993 0.89001ZM14.7799 14.84C14.7836 15.0196 14.7514 15.1981 14.6852 15.365C14.619 15.532 14.5202 15.6841 14.3945 15.8124C14.2688 15.9407 14.1188 16.0426 13.9532 16.1122C13.7876 16.1817 13.6098 16.2176 13.4302 16.2176C13.2506 16.2176 13.0728 16.1817 12.9072 16.1122C12.7417 16.0426 12.5916 15.9407 12.4659 15.8124C12.3402 15.6841 12.2414 15.532 12.1752 15.365C12.109 15.1981 12.0768 15.0196 12.0805 14.84C12.0877 14.4868 12.2331 14.1505 12.4854 13.9033C12.7377 13.656 13.0769 13.5176 13.4302 13.5176C13.7835 13.5176 14.1227 13.656 14.375 13.9033C14.6274 14.1505 14.7727 14.4868 14.7799 14.84ZM6.22993 16.19C6.58812 16.1899 6.93161 16.0476 7.18484 15.7942C7.43807 15.5409 7.58029 15.1974 7.58021 14.8392C7.58014 14.481 7.43778 14.1375 7.18444 13.8843C6.93111 13.631 6.58756 13.4888 6.22937 13.4889C5.87118 13.489 5.52769 13.6313 5.27446 13.8847C5.02123 14.138 4.87901 14.4815 4.87909 14.8397C4.87916 15.1979 5.02153 15.5414 5.27486 15.7946C5.52819 16.0479 5.87174 16.1901 6.22993 16.19Z" fill="#E8E8E2"/>
</svg>
