<svg width="195" height="33" viewBox="0 0 195 33" fill="none" xmlns="http://www.w3.org/2000/svg">
<rect y="0.980011" width="32" height="32" rx="16" fill="#586F1F"/>
<g clip-path="url(#clip0_2_382)">
<path d="M16.744 11.292C16.5125 10.9401 16.2012 10.6477 15.8355 10.4385C14.83 9.86201 13.535 9.96301 12.3395 10.6325C10.12 11.876 8.66699 14.213 8.66699 16.98C8.66699 20.6735 11.3405 23.6555 14.8315 24.22C15.2179 24.2823 15.6086 24.3136 16 24.3135C16.9687 24.3167 17.9283 24.1274 18.8232 23.7566C19.7181 23.3858 20.5304 22.8409 21.213 22.1535C21.8956 21.466 22.4346 20.6496 22.7985 19.7518C23.1625 18.854 23.3442 17.8927 23.333 16.924C23.3175 15.636 22.801 14.0555 21.9845 12.792C21.171 11.5335 19.9205 10.3865 18.3665 10.4015C17.608 10.403 17.09 10.82 16.744 11.2935V11.292ZM21.1805 14.0555C20.9021 14.0107 20.6189 14.0033 20.3385 14.0335L19.565 12.7335L18.4195 13.4135L19.014 14.4135C18.7652 14.5305 18.5275 14.6699 18.304 14.83C18.3001 14.8172 18.2961 14.8043 18.292 14.7915C18.114 14.2515 17.77 13.808 17.3115 13.3675L17.314 13.354C17.36 13.1385 17.4335 12.8605 17.5435 12.5905C17.792 11.98 18.081 11.7325 18.37 11.7325H18.3775C19.238 11.723 20.135 12.384 20.865 13.513C20.9785 13.6885 21.0835 13.869 21.181 14.0545L21.1805 14.055V14.0555ZM17.0735 16.0535C16.8535 16.059 16.6275 16.0835 16.407 16.1315C16.227 15.8303 15.9858 15.5701 15.699 15.368C15.1725 14.998 14.451 14.8145 13.671 15.106C13.5995 15.0649 13.5275 15.0247 13.455 14.9855L15.6105 12.873L14.677 11.921L12.1205 14.427C11.5805 14.2705 11.076 14.2145 10.6225 14.277C11.1443 13.2299 11.9704 12.3649 12.9925 11.7955C13.902 11.286 14.684 11.314 15.173 11.595C15.6395 11.8625 16.027 12.469 15.9295 13.553L15.8995 13.8885L16.1515 14.112C16.6995 14.5965 16.9275 14.91 17.026 15.2095C17.0955 15.4195 17.118 15.673 17.0735 16.0535ZM15.2 16.7235C14.6305 17.2 14.2485 17.869 14.0265 18.5915L12.044 16.415L11.058 17.3135L13.7835 20.3055C13.78 21.1 13.882 21.9135 14.03 22.649C12.85 22.2441 11.8265 21.4795 11.1036 20.4627C10.3807 19.4459 9.99477 18.2281 9.99999 16.9805C9.99999 16.287 10.1925 15.909 10.4195 15.744C10.6335 15.5865 11.1035 15.458 12.066 15.8135C12.414 15.942 12.8165 16.1395 13.2775 16.426L13.612 16.634L13.956 16.4405C14.3715 16.207 14.6885 16.29 14.932 16.4605C15.0385 16.535 15.13 16.628 15.2 16.7235ZM16.3765 22.968L21.238 17.61L20.2505 16.714L18.296 18.868L18.3005 18.192L16.967 18.1825L16.9515 20.349L15.296 22.1735C15.1705 21.493 15.096 20.7615 15.12 20.0755C15.1625 18.9055 15.63 17.944 16.3215 17.5635C16.608 17.4055 17.114 17.3435 17.514 17.414L18.1075 17.5175L18.271 16.938C18.3565 16.636 18.5825 16.3125 18.9355 16.0245C19.294 15.7349 19.7111 15.5266 20.158 15.414C20.692 15.2835 21.1475 15.3515 21.4475 15.558C21.7095 15.738 21.973 16.106 21.9975 16.8605V16.8725L21.9995 16.979C22.0058 18.5069 21.4265 19.9791 20.3806 21.0929C19.3347 22.2067 17.9017 22.8774 16.3765 22.967V22.968Z" fill="white"/>
</g>
<path d="M43.0156 21.5502C44.1385 21.413 44.7567 20.909 44.7567 20.0152V10.6912C44.7567 9.79803 44.1378 9.27106 43.0156 9.15621V8.24009H54.6536C54.8596 8.24009 54.9515 8.30899 54.9745 8.46912C55.0434 9.15621 55.0893 9.84396 55.4555 11.5161H54.8826C54.0807 10.1189 53.3936 9.38524 52.0417 9.38524H50.0946C49.0636 9.38524 48.6285 9.95815 48.6285 10.8743V13.2794C48.6285 14.1956 49.0636 14.6996 50.0946 14.6996H51.0107C52.8666 14.6996 53.2098 14.2645 53.3936 13.2335H53.8976V17.3114H53.3936C53.2105 16.3494 52.8666 15.8683 51.0107 15.8683H50.0946C49.0636 15.8683 48.6285 16.3723 48.6285 17.2885V20.0145C48.6285 20.9077 49.2474 21.4117 50.5986 21.5495V22.4656H43.0156V21.5495V21.5502ZM61.2371 22.6041C58.4191 22.6041 55.5559 20.909 55.5559 17.1972C55.5559 13.5091 58.4198 11.9282 61.1688 11.9282C64.0097 11.9282 66.85 13.6233 66.85 17.3351C66.85 21.0232 64.0091 22.6041 61.2371 22.6041ZM59.2211 16.1899C59.2211 19.0308 60.1602 21.5508 61.6262 21.5508C62.5194 21.5508 63.1842 20.6576 63.1842 18.2978C63.1842 15.4798 62.291 12.9598 60.779 12.9598C59.8629 12.9598 59.2211 13.876 59.2211 16.1899ZM73.5536 22.6041C70.7356 22.6041 67.8724 20.909 67.8724 17.1972C67.8724 13.5091 70.7363 11.9282 73.4853 11.9282C76.3262 11.9282 79.1665 13.6233 79.1665 17.3351C79.1665 21.0232 76.3256 22.6041 73.5536 22.6041ZM71.5376 16.1899C71.5376 19.0308 72.4767 21.5508 73.9427 21.5508C74.8359 21.5508 75.5007 20.6576 75.5007 18.2978C75.5007 15.4798 74.6075 12.9598 73.0955 12.9598C72.1794 12.9598 71.5376 13.876 71.5376 16.1899ZM84.5641 22.6041C82.411 22.6041 80.1883 20.8401 80.1883 17.4492C80.1883 13.8064 82.6853 11.9282 85.1134 11.9282C87.6334 11.9282 88.2975 13.8983 88.2975 11.5843V10.2095C88.2975 9.13259 87.7017 8.94949 86.8544 9.0184V8.12524L90.5885 7.5064C91.3675 7.39156 91.7337 7.73543 91.7337 8.42253V20.1294C91.7337 20.8854 92.0316 21.3894 92.6957 21.1144V21.6184C92.3748 22.3974 91.5506 22.6034 90.8398 22.6034C90.0609 22.6034 89.0758 22.3514 88.8009 21.6643C88.6178 21.2292 88.4117 21.0002 88.0678 21.0002C87.6098 21.0002 86.693 22.6041 84.5628 22.6041H84.5641ZM83.8764 16.2582C83.8764 18.5261 84.8844 20.7482 86.3504 20.7482C87.2436 20.7482 88.2975 20.1071 88.2975 18.1823V17.1054C88.2975 14.1273 86.9004 12.9585 85.7546 12.9585C84.5864 12.9585 83.8757 14.4016 83.8757 16.2575L83.8764 16.2582ZM97.5054 21.5502C98.6282 21.413 99.2464 20.909 99.2464 20.0152V10.7142C99.2464 9.79803 98.6276 9.27106 97.5054 9.15621V8.24009H104.584C109.074 8.24009 111.296 9.31699 111.296 11.6309C111.296 12.9369 110.54 14.2198 107.929 14.632C110.861 15.0441 112.121 16.4189 112.121 18.366C112.121 21.0232 109.761 22.4669 106.554 22.4669C104.721 22.4669 100.827 21.894 97.5047 22.4669V21.5508L97.5054 21.5502ZM103.118 20.3591C103.118 20.9549 103.485 21.2299 104.149 21.2299H104.951C106.692 21.2299 107.998 20.5658 107.998 18.3431C107.998 16.1899 106.669 15.2502 104.149 15.2502C103.553 15.2502 103.118 15.7082 103.118 16.625V20.3591ZM103.118 12.7761C103.118 13.6922 103.553 14.1509 104.584 14.1509H105.18C106.761 14.1509 107.173 12.9139 107.173 11.86C107.173 10.2561 106.302 9.36293 104.813 9.36293H104.584C103.553 9.36293 103.118 9.84396 103.118 10.7601V12.7761ZM118.837 22.6041C116.019 22.6041 113.156 20.909 113.156 17.1972C113.156 13.5091 116.02 11.9282 118.769 11.9282C121.609 11.9282 124.45 13.6233 124.45 17.3351C124.45 21.0232 121.609 22.6041 118.837 22.6041ZM116.821 16.1899C116.821 19.0308 117.76 21.5508 119.226 21.5508C120.119 21.5508 120.784 20.6576 120.784 18.2978C120.784 15.4798 119.891 12.9598 118.379 12.9598C117.463 12.9598 116.821 13.876 116.821 16.1899ZM129.429 22.6041C127.825 22.6041 126.084 21.94 126.084 18.3431V14.7002C126.084 13.6463 125.488 13.4632 124.641 13.4862V12.593L128.375 11.9742C129.154 11.8593 129.52 12.2032 129.52 12.8903V17.7931C129.52 19.397 130.184 20.5422 131.421 20.5422C132.681 20.5422 133.322 19.397 133.322 17.7931V14.7002C133.322 13.6463 132.726 13.4632 131.879 13.4862V12.593L135.59 11.9742C136.392 11.8593 136.758 12.2032 136.758 12.8903V20.1294C136.758 20.8854 137.056 21.3894 137.72 21.1144V21.6184C137.399 22.3974 136.575 22.6034 135.796 22.6034C134.147 22.6034 133.688 21.5725 133.574 21.0685C133.505 20.7476 133.322 20.5874 133.162 20.5874C133.002 20.5874 132.887 20.7246 132.773 20.8854C132.132 21.7562 131.238 22.6034 129.428 22.6034L129.429 22.6041ZM143.09 22.5811C140.983 22.5811 139.7 21.413 139.7 19.1903V14.1732C139.7 13.3713 139.517 13.2112 138.99 13.2112H137.959V12.4782C139.86 12.0431 140.777 11.1722 141.556 9.91221C141.739 9.61428 141.899 9.52306 142.197 9.52306H142.609C142.953 9.52306 143.159 9.72912 143.159 10.073L143.136 11.4931C143.136 11.9971 143.388 12.1343 144.556 12.1343H146.045V13.3483L144.556 13.2565C143.388 13.1876 143.136 13.3936 143.136 14.2185V19.0754C143.136 20.3354 143.273 21.1833 144.396 21.1833C144.694 21.1833 145.152 21.1374 145.587 20.8165C145.885 21.1833 145.999 21.5036 145.702 21.7785C145.175 22.2366 144.236 22.5805 143.09 22.5805L143.09 22.5811ZM146.97 21.5731C148.024 21.5042 148.413 21.161 148.413 19.924V14.6779C148.413 13.601 147.817 13.4179 146.993 13.4868V12.5937L150.704 11.9748C151.483 11.86 151.849 12.2038 151.849 12.8909V19.924C151.849 21.161 152.238 21.5049 153.269 21.5731V22.4663H146.969V21.5731H146.97ZM147.863 9.08796C147.863 7.98809 148.779 7.14087 149.856 7.14087C150.91 7.14087 151.803 7.98874 151.803 9.08796C151.803 10.1872 150.91 11.0351 149.856 11.0351C148.779 11.0351 147.863 10.1872 147.863 9.08796ZM160.111 25.949C161.417 25.8571 161.806 25.5139 161.806 24.3681V21.917C161.806 21.5049 161.6 21.3671 161.394 21.3671C161.334 21.3676 161.275 21.38 161.22 21.4036C161.165 21.4271 161.115 21.4613 161.073 21.5042C160.615 21.9623 159.63 22.6041 158.186 22.6041C155.826 22.6041 153.65 20.8631 153.65 17.4952C153.65 13.83 156.193 11.9282 158.827 11.9282C161.118 11.9282 162.08 13.3254 162.928 13.3254C163.73 13.3254 164.051 11.9505 164.692 11.9505C165.104 11.9505 165.242 12.1796 165.242 12.5005V24.3674C165.242 25.5126 165.631 25.8565 166.662 25.9483V26.8192H160.11V25.9483L160.111 25.949ZM157.339 16.2352C157.339 18.5032 158.301 20.7482 159.905 20.7482C160.776 20.7482 161.784 20.1071 161.806 17.5411C161.783 14.105 160.363 12.9592 159.217 12.9592C157.98 12.9592 157.338 14.4023 157.338 16.2352H157.339ZM171.11 22.6041C169.506 22.6041 167.765 21.94 167.765 18.3431V14.7002C167.765 13.6463 167.169 13.4632 166.322 13.4862V12.593L170.056 11.9742C170.835 11.8593 171.201 12.2032 171.201 12.8903V17.7931C171.201 19.397 171.865 20.5422 173.102 20.5422C174.362 20.5422 175.003 19.397 175.003 17.7931V14.7002C175.003 13.6463 174.407 13.4632 173.56 13.4862V12.593L177.271 11.9742C178.073 11.8593 178.439 12.2032 178.439 12.8903V20.1294C178.439 20.8854 178.737 21.3894 179.401 21.1144V21.6184C179.081 22.3974 178.256 22.6034 177.477 22.6034C175.828 22.6034 175.369 21.5725 175.255 21.0685C175.186 20.7476 175.003 20.5874 174.843 20.5874C174.683 20.5874 174.568 20.7246 174.454 20.8854C173.813 21.7562 172.919 22.6034 171.109 22.6034L171.11 22.6041ZM186.024 22.6041C183.16 22.6041 180.32 20.9549 180.32 17.358C180.32 13.601 183.389 11.9289 186.23 11.9289C188.658 11.9289 190.629 13.1429 190.629 15.1589C190.629 17.2209 188.636 17.3351 186.62 17.4958L184.833 17.633C184.444 17.656 184.237 17.8391 184.237 18.366C184.237 20.0611 186.07 20.8171 187.582 20.8171C188.384 20.8171 189.483 20.5881 190.308 19.649L190.995 20.2678C190.56 21.161 188.704 22.6047 186.024 22.6047L186.024 22.6041ZM184.077 15.7542C184.077 16.4183 184.237 16.7622 184.833 16.7392L185.657 16.6473C187.238 16.4872 187.559 16.0744 187.559 15.1812C187.559 14.0814 187.101 12.9822 185.909 12.9822C184.42 12.9822 184.077 14.6543 184.077 15.7542Z" fill="black"/>
<defs>
<clipPath id="clip0_2_382">
<rect width="16" height="16" fill="white" transform="translate(8 8.98001)"/>
</clipPath>
</defs>
</svg>
