<svg width="100" height="101" viewBox="0 0 100 101" fill="none" xmlns="http://www.w3.org/2000/svg">
<g clip-path="url(#clip0_2031_3)">
<path d="M100 50.88C100 78.4956 77.6156 100.88 50 100.88C22.3844 100.88 0 78.4956 0 50.88C0 23.2644 22.3844 0.880005 50 0.880005C77.6156 0.880005 100 23.2644 100 50.88Z" fill="#7E9A23"/>
<path d="M78.6687 54.5738C78.9937 52.0331 80.9531 50.7206 83.475 51.0425C85.9968 51.3644 87.5625 53.13 87.2375 55.6675C86.9125 58.2081 84.9531 59.5206 82.4312 59.1988C79.9093 58.8769 78.3437 57.1144 78.6687 54.5738ZM80.0343 54.7488C79.8312 56.3363 80.9812 57.3206 82.6469 57.5331C84.3281 57.7488 85.6718 57.08 85.875 55.4956C86.0781 53.9113 84.9468 52.9238 83.2625 52.7113C81.5968 52.4988 80.2375 53.1644 80.0343 54.7488ZM84.8031 64.9925C84.7218 65.2249 84.6247 65.4515 84.5125 65.6706L83.0187 65.1425L83.0281 65.1113C83.825 63.68 83.2312 62.0925 81.5875 61.5113L77.65 60.1175L78.2094 58.5331L85.9156 61.2613L85.3562 62.8456L83.9093 62.3331L83.9 62.3644C84.7218 63.1144 85.1593 63.9831 84.8031 64.9925ZM80.6843 72.1894L79.7968 73.6175L73.3281 69.5988C71.3312 68.3581 71.1968 66.5988 72.4218 64.63C73.6625 62.6331 75.3937 62.18 76.6562 62.7581L75.7625 64.1988C75.0656 63.955 74.3 64.1581 73.6 65.2863C72.8562 66.4831 73.0218 67.4331 74.2719 68.2081L75.1156 68.73L75.1312 68.7019C74.8437 68.0144 74.7218 67.055 75.4062 65.955C76.4875 64.2144 78.5062 63.6613 80.6937 65.0206C82.8969 66.3894 83.2812 68.4363 82.2 70.1769C81.5156 71.2769 80.6031 71.5956 79.8843 71.6581L79.8687 71.6863L80.6843 72.1894ZM76.4062 66.9519C75.6875 68.1081 76.0187 69.2738 77.4875 70.1863C78.9562 71.0988 80.1469 70.8769 80.8656 69.7206C81.6406 68.4706 81.1 67.2488 79.8093 66.4456C78.5312 65.6519 77.1843 65.7019 76.4062 66.9519ZM73.3093 77.2113C73.7187 77.6394 74.2812 77.7238 75.0937 76.9519C76.0687 76.0269 76.1406 75.3831 75.4718 74.5613L76.6562 73.4363C77.6781 74.6269 77.7968 76.2144 76.0093 77.9144C74.7 79.1613 73.25 79.5863 71.75 78.0113L69.0718 75.1925C68.675 74.7738 68.3718 74.6425 67.9406 75.1425L67.3906 74.5613C67.531 74.258 67.7308 73.986 67.9781 73.7613C68.6281 73.1425 69.15 73.0894 69.8156 73.5581L69.8375 73.5363C69.7125 72.6613 70.0437 71.6613 70.9594 70.7925C72.1656 69.6456 73.5687 69.6363 74.5156 70.6331C75.75 71.9331 75.1718 73.2519 73.9656 74.955C73.2156 75.9988 72.7687 76.6425 73.3093 77.2113ZM71.6094 72.005C70.6 72.9644 70.3781 74.1238 71.2937 75.0863L72.1437 75.98C72.2094 75.655 72.5531 75.0613 73.0093 74.405C73.8093 73.2269 73.975 72.5175 73.4 71.9144C72.8812 71.3706 72.2719 71.3769 71.6094 72.005ZM67.4437 84.0706C66.1094 84.7988 64.6343 84.605 63.7375 82.9613L61.0281 78.005L62.5156 77.1925L64.9937 81.7269C65.5219 82.6956 66.2687 83.0894 67.2781 82.5394C68.4156 81.9175 68.7687 80.83 68.1843 79.7644L65.7968 75.3988L67.2719 74.5925L71.1937 81.7675L69.7187 82.5738L69.2125 81.6456L69.1843 81.6613C69.1125 82.43 68.675 83.3988 67.4406 84.0738L67.4437 84.0706ZM62.2875 87.4988C62.7281 87.355 63.2844 87.5113 63.4625 88.0613C63.6406 88.6113 63.2781 89.0456 62.8375 89.1894C62.3656 89.3425 61.8312 89.1956 61.6531 88.6488C61.475 88.1019 61.8187 87.6519 62.2906 87.4988H62.2875ZM62.6531 85.9331L61.0562 86.4519L58.5312 78.6738L60.1281 78.155L62.6531 85.9331ZM52.5937 85.0519C52.7625 85.8675 53.4156 86.8019 54.8437 86.6206C56.4781 86.4113 56.9968 84.9269 56.8031 83.4019C56.6093 81.8769 55.7469 80.5675 54.0969 80.78C52.6687 80.9613 52.2718 82.0144 52.3218 82.9269L50.6562 83.1394C50.5437 81.2519 51.8125 79.6863 53.9218 79.4144C56.35 79.105 58.1437 80.6488 58.4687 83.1894C58.7937 85.73 57.4468 87.6769 55.0343 87.9831C52.925 88.2519 51.3719 87.08 50.9281 85.2644L52.5937 85.0519ZM36.3843 87.5394C37.4093 87.9081 37.8406 87.9269 38.1156 87.0394L38.3812 86.1831L36.9468 85.7363L37.3562 84.4238L38.7906 84.8706L40.8156 78.38L42.4343 78.8863L40.4093 85.3769L41.525 85.7238L41.1156 87.0363L40 86.6894L39.6906 87.6831C39.175 89.3331 38.2937 89.6925 37.0093 89.2925C36.6511 89.1794 36.3047 89.0318 35.975 88.8519L36.3843 87.5394ZM36.2625 76.0988C38.5031 77.3363 39.0062 79.6394 37.775 81.8675C36.5437 84.0956 34.3281 84.9019 32.0875 83.6644C29.8468 82.4269 29.3437 80.1238 30.575 77.8956C31.8062 75.6675 34.0218 74.8613 36.2625 76.0988ZM35.5968 77.3019C34.1968 76.53 32.8562 77.2331 32.0468 78.705C31.2281 80.1894 31.3531 81.6863 32.7531 82.4581C34.1531 83.23 35.4843 82.5394 36.3031 81.055C37.1156 79.5831 36.9968 78.0738 35.5968 77.3019Z" fill="white"/>
<path d="M30.3156 71.7363C32.1719 73.4988 32.0719 75.855 30.3188 77.7019C28.5656 79.5488 26.2188 79.7644 24.3625 78.0019C22.5063 76.2394 22.6063 73.8832 24.3594 72.0363C26.1125 70.1894 28.4594 69.9738 30.3156 71.7363ZM29.3688 72.7363C28.2094 71.6332 26.7344 71.9769 25.5782 73.1957C24.4094 74.4238 24.1532 75.9019 25.3125 77.005C26.4719 78.1082 27.9344 77.7769 29.1031 76.5457C30.2594 75.3269 30.5281 73.8394 29.3688 72.7363Z" fill="white"/>
<path d="M14.6375 70.3457L13.7719 68.905L23.5781 63.0144L24.4437 64.455L23.6344 64.9425L23.65 64.9707C24.1267 65.0273 24.5833 65.1955 24.9829 65.4615C25.3825 65.7276 25.7138 66.084 25.95 66.5019C27.0281 68.2988 26.4281 70.4707 24.125 71.855C21.8219 73.2394 19.6219 72.7488 18.5437 70.9519C17.8937 69.8675 17.9875 68.8769 18.3 68.1863L18.2844 68.1582L14.6344 70.3488L14.6375 70.3457ZM24.625 66.9582C23.9156 65.78 22.5062 65.6363 20.9562 66.5675C19.3937 67.5082 18.8687 68.8113 19.5781 69.9894C20.3375 71.2519 21.8906 71.23 23.2625 70.4082C24.6344 69.5863 25.3812 68.2207 24.625 66.9582ZM21.4031 52.0519C21.5031 54.6113 19.7875 56.23 17.2437 56.3269C14.7 56.4238 12.8656 54.9425 12.7687 52.3832C12.6719 49.8238 14.3844 48.205 16.9281 48.1082C19.4687 48.0113 21.3062 49.4957 21.4031 52.0519ZM20.0281 52.105C19.9656 50.505 18.6719 49.7238 16.9937 49.7894C15.3 49.855 14.0844 50.7332 14.1469 52.3332C14.2094 53.9332 15.4875 54.7144 17.1812 54.6488C18.8594 54.5832 20.0906 53.705 20.0281 52.105ZM13.6531 42.63C13.7031 42.3457 13.7562 42.1457 13.8312 41.9144L15.3906 42.1925L15.3844 42.2238C14.8312 43.7675 15.675 45.2332 17.3906 45.5425L21.5 46.2769L21.2031 47.93L13.1562 46.4894L13.4531 44.8363L14.9656 45.1082L14.9719 45.0769C14.0406 44.4707 13.4656 43.6863 13.6531 42.63ZM16.5219 34.8957L17.1656 33.3425L24.2031 36.2582C26.375 37.1582 26.7906 38.8707 25.9031 41.0144C25.0031 43.1863 23.3687 43.9144 22.0312 43.5488L22.6812 41.9832C23.4062 42.1113 24.1312 41.7863 24.6375 40.5613C25.175 39.2613 24.8594 38.3519 23.5 37.7863L22.5844 37.4082L22.5719 37.4363C22.9687 38.0675 23.2437 38.9957 22.7469 40.1925C21.9625 42.0832 20.0594 42.9582 17.6812 41.9738C15.2875 40.9832 14.5719 39.0238 15.3562 37.1332C15.8531 35.9363 16.7031 35.4738 17.4 35.2957L17.4125 35.2675L16.525 34.8988L16.5219 34.8957ZM21.5937 39.3707C22.1156 38.1144 21.6 37.0175 20.0031 36.355C18.4062 35.6925 17.2656 36.105 16.7469 37.3613C16.1844 38.7207 16.9156 39.8394 18.3187 40.4207C19.7094 40.9957 21.0312 40.73 21.5937 39.3707ZM22.9875 28.73C22.5156 28.3707 21.9469 28.38 21.2687 29.2707C20.4531 30.3394 20.4844 30.9863 21.2781 31.6894L20.2906 32.9863C19.0906 31.9738 18.7219 30.4238 20.2156 28.4644C21.3125 27.0269 22.6719 26.3738 24.4031 27.6925L27.4969 30.0488C27.9562 30.3988 28.275 30.48 28.6219 29.9207L29.2594 30.405C29.1686 30.7264 29.0158 31.0269 28.8094 31.2894C28.2656 32.0019 27.7594 32.1394 27.025 31.7832L27.0062 31.8082C27.2687 32.6519 27.1 33.6894 26.3344 34.6957C25.325 36.0207 23.9406 36.2519 22.8469 35.4207C21.4219 34.3363 21.7812 32.9394 22.7031 31.0675C23.2781 29.9175 23.6156 29.2082 22.9906 28.7332L22.9875 28.73ZM25.4937 33.5988C26.3375 32.4925 26.3719 31.3113 25.3156 30.505L24.3344 29.7582C24.3219 30.0925 24.0781 30.73 23.7312 31.4488C23.1312 32.7394 23.0812 33.4675 23.7406 33.9707C24.3375 34.4269 24.9406 34.3207 25.4937 33.5957V33.5988ZM27.5656 21.0738C28.7625 20.1363 30.25 20.0863 31.4031 21.5582L34.8906 26.0019L33.5562 27.0488L30.3656 22.9832C29.6844 22.1144 28.8844 21.8457 27.9781 22.5582C26.9594 23.3582 26.7875 24.4894 27.5375 25.4457L30.6094 29.3613L29.2875 30.3988L24.2406 23.9675L25.5625 22.93L26.2156 23.7613L26.2406 23.7425C26.1844 22.9738 26.4562 21.9425 27.5656 21.0738ZM32.1687 16.7832C31.7562 16.9957 31.1844 16.9332 30.9187 16.4207C30.6531 15.9082 30.9406 15.4175 31.3531 15.205C31.7937 14.9769 32.3469 15.0332 32.6094 15.5457C32.8719 16.0582 32.6094 16.555 32.1687 16.7832ZM32.0625 18.3894L33.5531 17.6175L37.3156 24.8769L35.825 25.6488L32.0625 18.3894ZM42.1406 17.6019C41.8406 16.8238 41.0437 16.0082 39.6656 16.4238C38.0875 16.8957 37.8156 18.4488 38.2562 19.9207C38.6969 21.3925 39.7594 22.5425 41.3531 22.0644C42.7312 21.6519 42.9531 20.5488 42.7531 19.6582L44.3625 19.1769C44.7812 21.0238 43.7875 22.7738 41.7469 23.3832C39.4031 24.0863 37.3781 22.855 36.6437 20.4019C35.9094 17.9488 36.9219 15.8082 39.25 15.1113C41.2875 14.5019 43.0125 15.405 43.7437 17.1207L42.1344 17.6019H42.1406ZM57.6594 12.5019C56.5875 12.305 56.1594 12.3582 56.0312 13.2769L55.9062 14.1644L57.3969 14.3738L57.2062 15.7363L55.7156 15.5269L54.775 22.2613L53.0937 22.0269L54.0344 15.2925L52.8781 15.13L53.0687 13.7675L54.225 13.93L54.3687 12.8988C54.6062 11.1863 55.4219 10.6863 56.7531 10.8738C57.1656 10.93 57.5219 11.03 57.8469 11.1394L57.6594 12.5019ZM59.675 23.7582C57.2625 22.905 56.3906 20.7113 57.2406 18.3144C58.0906 15.9175 60.1437 14.7613 62.5594 15.6144C64.9719 16.4675 65.8437 18.6613 64.9937 21.0582C64.1437 23.455 62.0906 24.6113 59.675 23.7582ZM60.1344 22.4613C61.6437 22.9957 62.85 22.08 63.4094 20.4988C63.975 18.8988 63.6062 17.4457 62.1 16.9113C60.5937 16.3769 59.3906 17.2769 58.825 18.8738C58.2656 20.4582 58.6281 21.9269 60.1344 22.4613Z" fill="white"/>
<path d="M66.1563 27.0081C64.0375 25.5706 63.75 23.23 65.1781 21.1237C66.6063 19.0175 68.8875 18.4206 71.0063 19.8581C73.125 21.2956 73.4125 23.6362 71.9844 25.7425C70.5563 27.8487 68.275 28.4456 66.1563 27.0081ZM66.9281 25.8706C68.2531 26.7675 69.65 26.1894 70.5938 24.7987C71.5469 23.3956 71.5563 21.8956 70.2344 20.9987C68.9125 20.1019 67.5219 20.6675 66.5688 22.0706C65.625 23.4612 65.6063 24.9737 66.9281 25.8706ZM82.0219 25.9737L83.1063 27.2581L74.3688 34.6425L73.2844 33.3581L74.0062 32.7487L73.9844 32.7237C73.505 32.7442 73.0275 32.6516 72.5905 32.4535C72.1535 32.2553 71.7692 31.9572 71.4688 31.5831C70.1156 29.9831 70.3594 27.7425 72.4125 26.0081C74.4656 24.2737 76.7125 24.405 78.0656 26.005C78.8813 26.9706 78.9469 27.9644 78.7469 28.6956L78.7687 28.7206L82.0219 25.9737ZM72.7094 30.9175C73.5969 31.9675 75.0125 31.8831 76.3937 30.7144C77.7875 29.5362 78.0938 28.1675 77.2062 27.1144C76.2562 25.9894 74.725 26.2581 73.5 27.2925C72.275 28.3269 71.7563 29.7925 72.7094 30.9175ZM55 46.88C46 48.88 43.9 55.0487 41.8187 60.2206L43.7094 60.88L44.6594 58.58C45.1406 58.7487 45.6406 58.88 46 58.88C57 58.88 60 41.88 60 41.88C59 43.88 52 44.13 47 45.13C42 46.13 40 50.38 40 52.38C40 54.38 41.75 56.13 41.75 56.13C45 46.88 55 46.88 55 46.88Z" fill="white"/>
</g>
<defs>
<clipPath id="clip0_2031_3">
<rect width="100" height="100" fill="white" transform="translate(0 0.880005)"/>
</clipPath>
</defs>
</svg>
